<svg width="145" height="46" viewBox="0 0 145 46" fill="none" xmlns="http://www.w3.org/2000/svg">
<path fill-rule="evenodd" clip-rule="evenodd" d="M0.5 35.7138V18.3569V1H24.829L24.705 3.2626C24.674 4.47138 24.488 5.64917 24.3021 5.80414C24.1471 5.99011 20.428 6.17607 6.07861 6.42403L6.23358 30.5997L10.7275 30.7547V10.6083H35.8312V37.7284L32.1121 41.5098C30.0667 43.6174 28.2071 45.3221 27.9902 45.3221L27.452 45.632C27.452 45.632 23.9922 45.911 10.8824 45.787L10.7275 35.7138H0.5ZM94.0967 39.4331V26.4155V13.3978H96.3592C97.7848 13.3668 98.7146 13.5218 98.9625 13.7697C99.2725 14.0797 99.3344 17.1481 99.2105 39.2782L94.0967 39.4331ZM43.2384 24.5558C42.8975 26.1675 42.8975 27.0663 43.2074 29.05C43.3933 30.4137 43.7653 32.0255 43.9512 32.6143C44.1682 33.2032 44.5401 33.8851 44.757 34.0711C44.943 34.288 45.1289 34.567 45.1289 34.691C45.1289 34.8459 45.3459 35.2489 45.6558 35.6208C45.9657 35.9927 46.4616 36.5506 46.7405 36.8606C47.0194 37.1705 47.4533 37.5735 47.6703 37.7594C47.8872 37.9454 48.693 38.4413 49.4678 38.8442C50.7385 39.5261 51.2034 39.5881 55.0465 39.5881C59.0445 39.5881 59.2924 39.5571 60.718 38.7203C61.5238 38.2553 62.4846 37.5735 62.8875 37.1705C64.1893 35.8687 65.8938 33.5426 65.8938 31.6845V30.7547C62.7635 30.6307 61.5548 30.5997 61.1829 30.5997C60.6251 30.5997 60.4081 30.8477 60.1602 31.8395C60.0052 32.5214 59.5403 33.3892 59.1684 33.7611C58.1655 34.8477 56.4186 35.0939 55.0465 35.0939C49.6982 35.0939 47.7853 29.5761 49.003 24.4008C49.0959 23.8739 49.3749 23.13 49.5608 22.6961C49.7778 22.2622 50.1497 21.6733 50.3976 21.3634C50.6455 21.0534 51.0794 20.5575 51.3274 20.2786C51.5753 19.9686 52.1022 19.5657 52.5051 19.3487C52.877 19.1628 54.0237 18.9768 55.0465 18.9768C56.5251 18.9768 58.0161 19.6108 59.0135 20.7745C59.6023 21.3944 60.1602 22.2932 60.2532 22.7891C60.3771 23.254 60.5941 23.6569 60.78 23.6569C60.966 23.6879 62.0507 23.7189 63.1974 23.7499C64.5921 23.7809 65.4289 23.657 65.6148 23.378C66.5656 22.0468 63.8134 18.446 62.9495 17.582C61.4824 16.1148 59.861 14.7549 57.7738 14.4826C57.03 14.3896 55.7283 14.2346 54.8605 14.1417C52.1597 13.804 48.6333 15.3506 46.8025 17.3341C45.0178 19.2617 43.7384 21.9842 43.2384 24.5558ZM125.089 27.1283C125.089 20.7745 125.182 15.3504 125.275 15.1025C125.461 14.6686 126.329 14.6376 131.721 14.7305C135.131 14.7925 138.416 14.9475 138.974 15.0715C142.19 15.6391 144.335 20.5171 144.335 23.316C144.335 25.5761 143.586 27.7538 141.98 29.3599C141.391 29.9488 140.368 30.6307 139.748 30.8787C139.098 31.1266 137.61 31.4986 136.401 31.6845C135.193 31.8705 133.55 31.9945 131.133 31.8705L130.823 39.2782L128.343 39.3401C126.69 39.4021 125.73 39.2988 125.461 39.0302C125.151 38.7513 125.058 36.1787 125.089 27.1283ZM69.6128 18.6668V20.8365H67.1334C67.1334 23.347 67.3194 24.1219 67.5983 24.4008C67.8463 24.6488 68.4041 24.8657 68.838 24.8657H69.6128C69.6128 34.412 69.7368 35.9618 70.0777 36.7986C70.3876 37.5425 71.0385 38.1624 72.1852 38.8132C73.4559 39.5571 74.1687 39.7431 75.5943 39.7431C76.5551 39.7431 77.6398 39.6191 77.9808 39.4331C78.4766 39.1852 78.6006 38.8132 78.6006 37.4185C78.6006 35.9308 78.5076 35.6828 77.9188 35.4968C77.5158 35.4038 76.71 35.2179 76.1212 35.1249L75.0365 34.9389V25.0207C77.4539 24.8657 78.2287 24.6488 78.3527 24.4628C78.4766 24.2458 78.6006 23.347 78.6006 22.4792V20.8365C76.4311 20.8674 75.7803 20.6815 75.4394 20.3095C75.0675 19.9376 74.8815 19.2247 74.8815 18.1399V16.4972H69.6128V18.6668ZM109.531 23.7809C109.5 20.6815 109.562 20.2166 110.027 19.9996C110.337 19.8756 111.421 19.8136 114.397 20.0616L114.49 23.316C114.552 25.9815 114.676 26.6324 115.11 26.9734C115.45 27.2213 116.69 27.3453 121.68 27.3453L121.525 31.8395L118.178 31.9325C115.017 31.9945 114.862 32.0255 114.707 32.6763C114.614 33.0793 114.521 34.722 114.397 39.2782L112.692 39.3711C111.762 39.4331 110.678 39.4021 110.275 39.3092C109.624 39.1232 109.593 38.9992 109.593 31.9945L103.239 31.8395L103.085 27.3453H109.593L109.531 23.7809ZM88.7041 20.6195C88.3632 20.8365 87.7743 21.3324 87.3714 21.7663C86.9808 22.1909 86.8042 22.3829 86.6479 22.3676C86.519 22.355 86.4038 22.2014 86.1937 21.9213C85.9148 21.5803 85.6978 21.1774 85.6359 21.0534C85.6049 20.8984 84.6441 20.7745 83.4974 20.7745C82.3197 20.7745 81.2969 20.8674 81.173 20.9914C81.018 21.1154 80.894 25.1137 80.8321 29.9178C80.7701 36.7056 80.8321 38.7513 81.142 39.0612C81.3899 39.3092 82.3197 39.4641 83.5904 39.4331C84.7681 39.4331 85.7598 39.2782 85.9768 39.0612C86.2557 38.7822 86.3487 36.9536 86.3487 32.6763C86.3487 28.926 86.4259 26.3671 86.6119 26.3671C86.7049 26.0572 87.6504 25.4546 88.1152 25.2377C88.6111 25.0207 89.6339 24.8657 90.4397 24.8657C91.4934 24.8657 91.9583 24.7418 92.0822 24.4008C92.1752 24.1529 92.2372 23.378 92.2372 22.6961C92.2372 22.0142 92.1132 21.1774 91.9273 20.8365C91.7103 20.3715 91.3074 20.2166 90.4397 20.2476C89.8198 20.2476 89.014 20.4335 88.7041 20.6195ZM30.5315 15.8773H16.3061V40.363H20.3351C20.3661 32.9553 20.49 31.3746 20.738 31.0646C21.0479 30.6927 22.0086 30.5997 25.7587 30.5997H30.4076L30.5315 15.8773ZM136.091 19.4107C135.413 19.1949 134.153 18.9791 133.285 18.9768C133.291 18.9768 133.296 18.9768 133.302 18.9768H133.271C133.276 18.9768 133.28 18.9768 133.285 18.9768C132.423 18.9788 131.534 19.1332 131.288 19.3487C130.947 19.6277 130.854 20.5885 130.916 23.533L130.978 27.3453C131.417 27.3453 131.887 27.3663 132.37 27.3879C134.318 27.4749 136.498 27.5723 137.92 26.3535C138.137 26.1365 138.478 25.6406 138.664 25.2687C138.881 24.8657 139.036 23.9669 139.036 23.254C139.036 22.2622 138.819 21.6733 138.199 20.8984C137.703 20.3095 136.773 19.6587 136.091 19.4107ZM29.1989 36.0547C28.984 35.8706 28.4046 35.7168 27.8817 35.7138C27.8869 35.7138 27.892 35.7138 27.8972 35.7138H27.8662C27.8714 35.7138 27.8765 35.7138 27.8817 35.7138C27.3582 35.7168 26.748 35.8709 26.5025 36.0857C26.2236 36.3027 26.0996 36.9536 26.1306 37.7904C26.1616 38.5343 26.3786 39.2162 26.5955 39.3091C26.7815 39.4021 27.4633 38.9992 28.0521 38.4413C28.672 37.8834 29.2608 37.2015 29.3848 36.9226C29.4778 36.6436 29.4158 36.2407 29.1989 36.0547Z" fill="#D79B1E"/>
<path d="M2 2L36 0.5L35.5 21L32 40L15.5 44L10.5 34.5L0.5 30L2 2Z" fill="#D79B1E" fill-opacity="0.14"/>
</svg>
